<mxfile host="app.diagrams.net" agent="Mozilla/5.0 (Macintosh; Intel Mac OS X 10_15_7) AppleWebKit/537.36 (KHTML, like Gecko) Chrome/128.0.0.0 Safari/537.36" version="24.7.17">
  <diagram name="Page-1" id="CaK3V9fM58c3YG72qFZl">
    <mxGraphModel dx="1304" dy="314" grid="0" gridSize="10" guides="0" tooltips="1" connect="0" arrows="0" fold="1" page="0" pageScale="1" pageWidth="850" pageHeight="1100" background="none" math="0" shadow="0">
      <root>
        <mxCell id="0" />
        <mxCell id="1" parent="0" />
        <mxCell id="RJ9BVVhdSwPBVo3-j9y9-166" value="MOngo&amp;nbsp;" style="ellipse;whiteSpace=wrap;html=1;aspect=fixed;hachureGap=4;fontFamily=Architects Daughter;fontSource=https%3A%2F%2Ffonts.googleapis.com%2Fcss%3Ffamily%3DArchitects%2BDaughter;rounded=1;" parent="1" vertex="1">
          <mxGeometry x="242" y="580" width="80" height="80" as="geometry" />
        </mxCell>
        <mxCell id="RJ9BVVhdSwPBVo3-j9y9-169" value="" style="whiteSpace=wrap;html=1;aspect=fixed;hachureGap=4;fontFamily=Architects Daughter;fontSource=https%3A%2F%2Ffonts.googleapis.com%2Fcss%3Ffamily%3DArchitects%2BDaughter;rounded=1;" parent="1" vertex="1">
          <mxGeometry x="580" y="517" width="80" height="80" as="geometry" />
        </mxCell>
        <mxCell id="RJ9BVVhdSwPBVo3-j9y9-170" value="" style="endArrow=classic;html=1;rounded=1;hachureGap=4;fontFamily=Architects Daughter;fontSource=https%3A%2F%2Ffonts.googleapis.com%2Fcss%3Ffamily%3DArchitects%2BDaughter;exitX=0.909;exitY=0.785;exitDx=0;exitDy=0;exitPerimeter=0;entryX=0;entryY=0.75;entryDx=0;entryDy=0;" parent="1" source="RJ9BVVhdSwPBVo3-j9y9-166" target="RJ9BVVhdSwPBVo3-j9y9-169" edge="1">
          <mxGeometry width="50" height="50" relative="1" as="geometry">
            <mxPoint x="362" y="883" as="sourcePoint" />
            <mxPoint x="412" y="833" as="targetPoint" />
          </mxGeometry>
        </mxCell>
      </root>
    </mxGraphModel>
  </diagram>
</mxfile>
